<svg id="Layer_5" enable-background="new 0 0 64 64" height="512" viewBox="0 0 64 64" width="512" xmlns="http://www.w3.org/2000/svg"><g><g><path d="m60 50h-22.429l-.326 2.283c-.14.985-.984 1.717-1.98 1.717h-6.531c-.995 0-1.839-.732-1.98-1.717l-.325-2.283h-14.429c-1.105 0-2 .895-2 2s.895 2 2 2h4c1.105 0 2 .895 2 2s-.895 2-2 2h-12c-1.105 0-2 .895-2 2s.895 2 2 2h50c1.105 0 2-.895 2-2s-.895-2-2-2h-5c-1.105 0-2-.895-2-2s.895-2 2-2h11c1.105 0 2-.895 2-2s-.895-2-2-2z" fill="#f0bc5e"/></g><g><circle cx="32" cy="50" r="1"/><path d="m47 1h-30c-1.103 0-2 .897-2 2v2c0 1.103.897 2 2 2h.111l1.898 16.132c.008.495.072.979.171 1.455l1.411 11.997c.237 2.013 1.656 3.611 3.508 4.179l1.666 11.661c.21 1.469 1.486 2.576 2.969 2.576h6.531c1.483 0 2.76-1.107 2.969-2.576l1.666-11.662c1.852-.568 3.271-2.166 3.508-4.179l1.411-11.997c.099-.476.163-.96.171-1.455l1.899-16.131h.111c1.103 0 2-.897 2-2v-2c0-1.103-.897-2-2-2zm-6 4v-2h2v2zm-20 0v-2h2v2zm4-2h2v2h-2zm4 0h2v2h-2zm4 0h2v2h-2zm4 0h2v2h-2zm-20 0h2v2h-2zm25.838 21.314c-.866 3.787-5.389 6.686-10.838 6.686s-9.972-2.899-10.838-6.686l-.159-1.351c.027-4.394 4.949-7.963 10.997-7.963s10.97 3.569 10.997 7.963zm-5.804 22.374c-1.436-1.083-3.188-1.688-5.034-1.688s-3.598.605-5.034 1.688l-.813-5.688h11.694zm-1.768 6.312h-6.531c-.494 0-.919-.369-.99-.859l-.438-3.068c1.207-1.318 2.891-2.073 4.693-2.073s3.486.755 4.694 2.073l-.438 3.069c-.071.489-.496.858-.99.858zm6.156-16.649c-.177 1.51-1.458 2.649-2.979 2.649h-12.886c-1.521 0-2.802-1.139-2.979-2.649l-.853-7.247c2.38 2.364 6.095 3.896 10.275 3.896s7.895-1.532 10.275-3.897zm2.112-17.946c-2.168-3.207-6.52-5.405-11.534-5.405s-9.366 2.198-11.534 5.405l-1.341-11.405h25.751zm1.466-13.405v-2h2l.001 2z"/><path d="m35 19c-.916 0-2.27.558-3 .892-.73-.334-2.084-.892-3-.892-1.176 0-3.577 1.516-4.555 2.168l-.734.49.395.79c.093.185 2.34 4.552 7.894 4.552s7.801-4.367 7.895-4.553l.395-.79-.734-.49c-.979-.651-3.38-2.167-4.556-2.167zm-3 6c-3.06 0-4.826-1.685-5.612-2.7 1.163-.712 2.278-1.274 2.612-1.3.519 0 1.83.534 2.553.895l.447.223.447-.223c.721-.361 2.032-.895 2.543-.895.342.026 1.458.588 2.619 1.299-.79 1.013-2.562 2.701-5.609 2.701z"/></g></g></svg>