<svg id="Layer_5" enable-background="new 0 0 64 64" height="512" viewBox="0 0 64 64" width="512" xmlns="http://www.w3.org/2000/svg"><g><g><g><path d="m32 53c-4.411 0-8-3.589-8-8 0-1.681.522-3.295 1.511-4.668l.389-.539.646.149c.173.039.317.058.454.058 1.021 0 1.871-.773 1.975-1.799l.067-.663.638-.193c.755-.229 1.535-.345 2.32-.345 4.411 0 8 3.589 8 8s-3.589 8-8 8z" fill="#f0bc5e"/></g></g><g><path d="m32 41c-2.206 0-4 1.794-4 4s1.794 4 4 4 4-1.794 4-4-1.794-4-4-4zm0 6c-1.103 0-2-.897-2-2s.897-2 2-2 2 .897 2 2-.897 2-2 2z"/><path d="m55.927 37.6c.329-.555.616-1.169.872-1.818 1.223.807 2.416 1.676 3.566 2.622l1.27-1.545c-1.353-1.113-2.76-2.129-4.21-3.058.369-1.487.575-3.109.575-4.801h-2c0 1.285-.133 2.538-.374 3.704-1.275-.733-2.583-1.394-3.919-1.989.192-1.173.293-2.416.293-3.715h-2c0 1.02-.07 1.995-.197 2.924-1.344-.522-2.713-.976-4.105-1.359.199-1.136.302-2.334.302-3.565h-2c0 1.054-.089 2.089-.255 3.075-1.385-.312-2.791-.56-4.214-.736.303-1.366.469-2.834.469-4.339h-2c0 1.455-.171 2.856-.474 4.14-1.156-.09-2.321-.14-3.497-.14h-4.059c-1.175 0-2.341.05-3.497.14-.302-1.284-.473-2.685-.473-4.14h-2c0 1.505.167 2.973.469 4.339-1.425.176-2.832.424-4.219.737-.164-.981-.25-2.015-.25-3.076h-2c0 1.227.108 2.424.309 3.563-1.395.384-2.766.838-4.111 1.361-.128-.929-.198-1.904-.198-2.924h-2c0 1.298.101 2.542.293 3.715-1.336.595-2.644 1.255-3.919 1.989-.242-1.166-.374-2.419-.374-3.704h-2c0 1.692.206 3.314.575 4.801-1.449.93-2.856 1.945-4.209 3.058l1.27 1.545c1.15-.945 2.342-1.814 3.566-2.621.255.649.542 1.263.872 1.818-2.162 1.442-4.196 3.107-6.074 4.984-.645.645-1 1.502-1 2.415s.355 1.77 1 2.414c7.471 7.471 17.404 11.586 27.971 11.586h4.059c10.566 0 20.5-4.115 27.971-11.585.645-.645 1-1.502 1-2.415s-.355-1.77-1-2.414c-1.879-1.878-3.913-3.544-6.074-4.986zm-.853-2.896c-.239.667-.521 1.282-.84 1.83-1.176-.701-2.388-1.335-3.626-1.907.257-.604.48-1.244.667-1.918 1.298.593 2.563 1.264 3.799 1.995zm-5.66-2.787c-.176.679-.388 1.322-.641 1.919-1.383-.555-2.798-1.027-4.24-1.422.27-.597.506-1.231.704-1.9 1.418.393 2.812.86 4.177 1.403zm-6.119-1.892c-.205.684-.454 1.321-.741 1.903-1.454-.318-2.929-.562-4.425-.715.319-.591.601-1.232.844-1.921 1.461.169 2.903.413 4.322.733zm-11.295 26.975c-6.617 0-12-5.383-12-12s5.383-12 12-12 12 5.383 12 12-5.383 12-12 12zm-2.029-28h4.059c.97 0 1.931.041 2.887.105-.289.726-.632 1.376-1.022 1.94-.62-.028-1.241-.045-1.866-.045h-4.059c-.624 0-1.246.017-1.865.045-.389-.564-.732-1.214-1.021-1.94.956-.064 1.917-.105 2.887-.105zm-4.943.291c.242.689.525 1.33.844 1.921-1.495.153-2.97.397-4.423.714-.289-.586-.54-1.221-.746-1.901 1.42-.32 2.863-.564 4.325-.734zm-6.268 1.224c.197.668.431 1.305.7 1.901-1.439.394-2.852.866-4.233 1.42-.253-.596-.465-1.24-.641-1.919 1.364-.543 2.757-1.009 4.174-1.402zm-9.835 4.189c1.237-.731 2.502-1.402 3.799-1.996.187.674.411 1.314.667 1.918-1.239.572-2.45 1.206-3.627 1.907-.318-.547-.6-1.162-.839-1.829zm-5.511 11.296c-.268-.267-.414-.622-.414-1s.146-.733.414-1c5.686-5.686 12.877-9.319 20.674-10.538-3.673 2.526-6.088 6.754-6.088 11.538s2.415 9.012 6.088 11.538c-7.797-1.219-14.988-4.852-20.674-10.538zm57.172 0c-5.686 5.686-12.877 9.319-20.674 10.538 3.673-2.526 6.088-6.754 6.088-11.538s-2.415-9.012-6.088-11.538c7.797 1.219 14.988 4.852 20.674 10.538.268.267.414.622.414 1s-.146.733-.414 1z"/><path d="m34.029 61h-4.059c-9.747 0-18.854-3.252-26.336-9.405l-1.27 1.545c7.845 6.45 17.391 9.86 27.607 9.86h4.059c10.215 0 19.761-3.409 27.605-9.859l-1.27-1.545c-7.482 6.152-16.59 9.404-26.336 9.404z"/><path d="m63 6h-25.382c-.704-.615-1.613-1-2.618-1v-4h-2v4h-2v-4h-2v4h-2v-4h-2v4h-2v-4h-2v4h-2v-4h-2v4h-2v-4h-2v4h-2v-4h-2v4h-2v-4h-2v4c-2.206 0-4 1.794-4 4s1.794 4 4 4v4h2v-4h2v4h2v-4h2v4h2v-4h2v4h2v-4h2v4h2v-4h2v4h2v-4h2v4h2v-4h2v4h2v-4c1.005 0 1.914-.385 2.618-1h25.382v-2h-24.142c.084-.322.142-.653.142-1s-.058-.678-.142-1h24.142zm-28 5h-30c-1.103 0-2-.897-2-2s.897-2 2-2h30c1.103 0 2 .897 2 2s-.897 2-2 2z"/></g></g></svg>